HIERARCHY
ROOT Hips
{
	OFFSET -3.958830 18.904000 13.208200
	CHANNELS 6 Xposition Yposition Zposition Zrotation Yrotation Xrotation 
	JOINT LHipJoint
	{
		OFFSET 0.000000 0.000000 0.000000
		CHANNELS 3 Zrotation Yrotation Xrotation
		JOINT LeftUpLeg
		{
			OFFSET 1.800000 -1.400000 0.085000
			CHANNELS 3 Zrotation Yrotation Xrotation
			JOINT LeftLeg
			{
				OFFSET 2.215000 -6.000000 0.000000
				CHANNELS 3 Zrotation Yrotation Xrotation
				JOINT LeftFoot
				{
					OFFSET 2.500000 -6.900000 0.000000
					CHANNELS 3 Zrotation Yrotation Xrotation
					JOINT LeftToeBase
					{
						OFFSET 0.200000 -0.500000 1.950000
						CHANNELS 3 Zrotation Yrotation Xrotation
						End Site
						{
							OFFSET 0.000000 0.000000 0.000000
						}
					}
				}
			}
		}
	}
	JOINT RHipJoint
	{
		OFFSET 0.000000 0.000000 0.000000
		CHANNELS 3 Zrotation Yrotation Xrotation
		JOINT RightUpLeg
		{
			OFFSET -1.800000 -1.400000 0.085000
			CHANNELS 3 Zrotation Yrotation Xrotation
			JOINT RightLeg
			{
				OFFSET -2.215000 -6.000000 0.000000
				CHANNELS 3 Zrotation Yrotation Xrotation
				JOINT RightFoot
				{
					OFFSET -2.500000 -6.900000 0.000000
					CHANNELS 3 Zrotation Yrotation Xrotation
					JOINT RightToeBase
					{
						OFFSET -0.200000 -0.500000 1.950000
						CHANNELS 3 Zrotation Yrotation Xrotation
						End Site
						{
							OFFSET 0.000000 0.000000 0.000000
						}
					}
				}
			}
		}
	}
	JOINT LowerBack
	{
		OFFSET 0.000000 0.000000 0.000000
		CHANNELS 3 Zrotation Yrotation Xrotation
		JOINT Spine
		{
			OFFSET -0.087000 1.940000 -0.288900
			CHANNELS 3 Zrotation Yrotation Xrotation
			JOINT Spine1
			{
				OFFSET 0.000000 1.950000 0.060000
				CHANNELS 3 Zrotation Yrotation Xrotation
				JOINT Neck
				{
					OFFSET 0.000000 0.000000 0.000000
					CHANNELS 3 Zrotation Yrotation Xrotation
					JOINT Neck1
					{
						OFFSET 0.000000 1.600000 0.340000
						CHANNELS 3 Zrotation Yrotation Xrotation
						JOINT Head
						{
							OFFSET 0.000000 1.667000 -0.240000
							CHANNELS 3 Zrotation Yrotation Xrotation
							End Site
							{
								OFFSET 0.000000 0.000000 0.000000
							}
						}
					}
				}
				JOINT LeftShoulder
				{
					OFFSET 0.000000 0.000000 0.000000
					CHANNELS 3 Zrotation Yrotation Xrotation
					JOINT LeftArm
					{
						OFFSET 2.700000 1.550000 -0.730000
						CHANNELS 3 Zrotation Yrotation Xrotation
						JOINT LeftForeArm
						{
							OFFSET 5.450000 0.000000 0.000000
							CHANNELS 3 Zrotation Yrotation Xrotation
							JOINT LeftHand
							{
								OFFSET 3.450000 0.000000 0.000000
								CHANNELS 3 Zrotation Yrotation Xrotation
								JOINT LeftHandIndex1
								{
									OFFSET 0.750000 0.000000 0.000000
									CHANNELS 3 Zrotation Yrotation Xrotation
									End Site
									{
										OFFSET 0.000000 0.000000 0.000000
									}
								}
							}
						}
					}
				}
				JOINT RightShoulder
				{
					OFFSET 0.000000 0.000000 0.000000
					CHANNELS 3 Zrotation Yrotation Xrotation
					JOINT RightArm
					{
						OFFSET -2.700000 1.550000 -0.730000
						CHANNELS 3 Zrotation Yrotation Xrotation
						JOINT RightForeArm
						{
							OFFSET -5.450000 0.000000 0.000000
							CHANNELS 3 Zrotation Yrotation Xrotation
							JOINT RightHand
							{
								OFFSET -3.450000 0.000000 0.000000
								CHANNELS 3 Zrotation Yrotation Xrotation
								JOINT RightHandIndex1
								{
									OFFSET -0.750000 0.000000 0.000000
									CHANNELS 3 Zrotation Yrotation Xrotation
									End Site
									{
										OFFSET 0.000000 0.000000 0.000000
									}
								}
							}
						}
					}
				}
			}
		}
	}
}
MOTION
Frames: 9
Frame Time: 0.016667
0.038210 16.853460 -0.224670 -8.016315 -9.402888 13.365959 -15.545585 12.803777 3.811393 13.339038 -2.872801 -32.578319 -9.917023 9.891444 25.447871 -0.171172 6.259722 2.567861 -0.368900 -0.851530 -0.378690 18.010538 -9.953465 2.718363 -3.526779 2.955791 -18.250183 12.911517 -5.630969 11.759218 0.293052 -3.411462 3.557651 -0.375900 0.930600 0.111380 -2.584461 -2.697149 -7.486925 -0.820409 5.976274 6.598483 10.752920 5.804780 6.223593 -2.303794 -5.972324 -9.550857 -15.124074 8.045453 36.866655 -0.811460 3.716970 16.440720 -0.383741 3.969057 4.006862 -73.605603 -13.182342 0.440816 -18.276396 -36.208077 2.561971 -4.017755 3.246608 0.166780 0.570480 -0.648340 0.183410 6.419846 2.489682 5.823521 56.558997 -1.883337 -12.204970 24.684614 43.658832 6.072723 1.976050 -1.627926 -0.484190 0.253250 0.380890 -0.083190 
0.035130 16.864140 -0.215700 -7.592282 -9.260647 13.621912 -15.500139 12.801659 3.797270 12.898446 -3.038113 -32.196134 -10.168520 9.605738 24.398866 -0.190420 6.083331 2.646336 -0.406310 -0.896870 -0.393240 18.039070 -10.005094 2.737341 -3.824011 2.942585 -18.545541 12.749073 -5.581117 11.546852 0.313789 -3.380435 3.575007 -0.402790 0.943730 0.103110 -2.690420 -2.601478 -7.503011 0.248435 5.492751 6.786799 8.962683 5.506601 5.608754 -1.714983 -5.800800 -9.539803 -14.542701 7.840477 36.494126 -1.207460 3.944340 16.962060 -0.990658 4.660198 3.610137 -71.793644 -12.059268 -0.271360 -19.171464 -36.806980 3.095839 -4.043358 3.217582 0.165410 0.580310 -0.662680 0.171980 5.719854 1.554525 5.930375 58.585835 -2.607613 -12.649765 27.774187 45.540899 7.393119 1.971144 -1.657700 -0.499070 0.256630 0.397840 -0.087900 
0.030870 16.873940 -0.204650 -7.127230 -9.048340 13.855568 -15.453083 12.806857 3.775536 12.396108 -3.197056 -31.723259 -10.410080 9.277815 23.221247 -0.219136 5.894098 2.728669 -0.431300 -0.935110 -0.395490 18.069186 -10.054882 2.752404 -4.168786 2.926528 -18.815555 12.616582 -5.559819 11.415863 0.329558 -3.361274 3.587823 -0.422840 0.953780 0.101650 -2.802031 -2.522380 -7.507095 1.359327 4.948980 6.910519 7.183394 5.122095 5.057892 -1.155384 -5.683380 -9.479139 -14.081491 7.749013 36.098351 -1.613780 4.236040 17.255170 -1.567046 5.459433 3.187411 -70.114165 -10.968660 -0.867933 -20.038850 -37.357407 3.620013 -4.068722 3.190079 0.169970 0.590320 -0.672220 0.163280 5.025002 0.526347 5.991865 60.445849 -3.208754 -12.871136 31.170887 47.203310 8.943790 1.963203 -1.690022 -0.513430 0.259230 0.409520 -0.096570 
0.025380 16.883210 -0.194390 -6.530338 -8.778564 14.154558 -15.407266 12.798499 3.751842 11.733206 -3.392248 -31.313760 -10.614613 8.917617 21.996691 -0.243081 5.692002 2.819918 -0.462040 -0.971890 -0.412430 18.102343 -10.100745 2.760406 -4.619454 2.910686 -19.216773 12.434383 -5.517328 11.252880 0.351555 -3.344550 3.596999 -0.440660 0.976410 0.106210 -2.918845 -2.431546 -7.486771 2.323629 4.403885 6.828411 5.406939 4.672566 4.657577 -0.650950 -5.534448 -9.342597 -13.445950 7.673691 35.387004 -1.953040 4.551360 17.604590 -2.104679 6.289314 2.765515 -68.493725 -9.959241 -1.413113 -20.805276 -38.118013 4.158156 -4.103778 3.177692 0.159760 0.611110 -0.688500 0.158000 4.387540 -0.580793 5.989658 62.223451 -3.684170 -12.888735 34.688163 48.662442 10.636411 1.955295 -1.731774 -0.524230 0.258960 0.424900 -0.096060 
0.017120 16.891470 -0.182160 -5.982257 -8.578879 14.445310 -15.354268 12.777953 3.722648 11.175610 -3.517828 -30.793628 -10.923565 8.596221 20.663721 -0.253666 5.500139 2.908321 -0.493300 -1.005390 -0.432810 18.144689 -10.150738 2.768615 -5.011261 2.896408 -19.599285 12.229079 -5.460395 11.074856 0.377929 -3.327249 3.613095 -0.458540 1.000060 0.104500 -3.060119 -2.306587 -7.460700 3.442317 3.891800 6.656481 3.520658 4.233745 4.306455 -0.160219 -5.426151 -9.236876 -12.881537 7.733509 34.672297 -2.131670 4.907960 18.156670 -2.523375 7.094818 2.382599 -66.952619 -8.986768 -1.897746 -21.438926 -38.897291 4.680058 -4.135594 3.173324 0.138980 0.632730 -0.710080 0.154290 3.651385 -1.645116 6.023941 64.074794 -4.115106 -12.768330 38.304455 49.909362 12.448585 1.950684 -1.777015 -0.531750 0.257470 0.437000 -0.092020 
0.007880 16.901080 -0.173040 -5.483424 -8.457449 14.688658 -15.296922 12.754633 3.692946 10.625450 -3.619521 -30.309724 -11.126803 8.301475 19.548193 -0.270964 5.334566 2.982434 -0.510590 -1.022270 -0.447620 18.192985 -10.205656 2.772995 -5.405405 2.910476 -20.069365 11.968010 -5.432451 11.135468 0.396633 -3.317164 3.619095 -0.465580 1.017790 0.107320 -3.216955 -2.165301 -7.429146 4.700321 3.396671 6.511122 1.635494 3.799985 4.079933 0.285605 -5.433408 -9.124968 -12.564894 7.889032 33.989329 -2.335890 5.228440 18.347140 -2.937326 7.787168 2.009061 -65.516086 -8.133344 -2.312486 -21.889480 -39.527662 5.097359 -4.162751 3.172066 0.124980 0.650080 -0.724810 0.153250 2.982017 -2.504447 6.055392 65.580641 -4.336370 -12.428677 42.008407 50.792721 14.306052 1.942645 -1.822991 -0.536430 0.255910 0.445980 -0.088970 
-0.004760 16.908300 -0.163560 -4.944188 -8.251475 14.932631 -15.240493 12.720398 3.660700 10.076863 -3.700812 -29.829313 -11.305515 8.010946 18.417881 -0.280288 5.179941 3.058333 -0.540740 -1.053560 -0.474910 18.242772 -10.266888 2.774607 -5.750376 2.930603 -20.590790 11.681986 -5.429592 11.340891 0.421447 -3.322206 3.621606 -0.480210 1.047570 0.113850 -3.375375 -1.993071 -7.388411 5.883556 2.959719 6.235431 -0.167937 3.382096 3.931489 0.707636 -5.349578 -9.030017 -12.031388 7.928774 33.251172 -2.566540 5.524360 18.894120 -3.113155 8.376495 1.703344 -64.224247 -7.401967 -2.601936 -22.431044 -40.029562 5.539871 -4.197976 3.181941 0.100000 0.677740 -0.749040 0.153180 2.141080 -3.314914 6.117264 67.186961 -4.464938 -11.995937 45.456679 51.478946 16.087670 1.932269 -1.874037 -0.541700 0.250450 0.460670 -0.081390 
-0.017750 16.916540 -0.154730 -4.457592 -7.973871 15.143911 -15.181233 12.678019 3.621868 9.552649 -3.758481 -29.373651 -11.374904 7.720376 17.390886 -0.285046 5.030001 3.130684 -0.561130 -1.070120 -0.497300 18.298468 -10.330151 2.775684 -6.049133 2.952110 -21.086626 11.432833 -5.441273 11.599994 0.439431 -3.337514 3.615036 -0.487670 1.073540 0.125210 -3.548440 -1.800293 -7.337829 7.208839 2.552892 5.895822 -1.919478 2.984742 3.973589 1.073115 -5.314899 -8.932858 -11.607720 7.920981 32.468024 -2.815770 5.714130 19.246150 -3.264764 8.796589 1.428702 -63.036672 -6.907110 -2.787197 -22.804374 -40.372491 5.881469 -4.230652 3.198912 0.070010 0.703710 -0.767610 0.156320 1.380567 -3.925275 6.202944 68.500106 -4.512254 -11.506813 48.791709 52.120509 17.853702 1.923018 -1.931495 -0.539120 0.242190 0.468830 -0.069310 
-0.028760 16.925670 -0.147340 -3.963347 -7.644459 15.221299 -15.122132 12.649991 3.568555 8.905728 -3.798570 -28.791442 -11.243097 7.391083 16.439179 -0.315652 4.873782 3.197420 -0.575240 -1.086990 -0.513340 18.351367 -10.403215 2.778251 -6.415654 2.949379 -21.472646 11.261021 -5.493665 11.901432 0.451765 -3.367727 3.598090 -0.489750 1.092060 0.135890 -3.716502 -1.608562 -7.284004 8.520988 2.171096 5.572091 -3.578864 2.618727 4.196201 1.415029 -5.291126 -8.898264 -11.285042 7.970983 31.988403 -2.939020 5.755810 19.299560 -3.246457 9.030895 1.248167 -62.161889 -6.543607 -2.952152 -22.985306 -40.786631 6.107844 -4.257804 3.211712 0.057790 0.722260 -0.783560 0.152880 0.513818 -4.326125 6.330178 69.643956 -4.350227 -10.907658 52.123969 52.737366 19.691306 1.902478 -1.981776 -0.543420 0.237650 0.484830 -0.067460 
